PathFileType	4	(X/Y/Z)	Kaydara																																																																																																																																																																																																																												
DataRate	CameraRate	NumFrames	NumMarkers	Units	OrigDataRate	OrigDataStartFrame	OrigNumFrames																																																																																																																																																																																																																								
60	60	4	74	mm	60	2036	203																																																																																																																																																																																																																								
Frame#	Time	N_lasi			N_rasi			N_rpsi			N_lpsi			N_fneck			N_bneck			N_fhead			N_rhead			N_lhead			N_rshld			N_relbtop			N_relbext			N_relblow			N_rwrext			N_rwrtop			N_rwrlow			N_lshld			N_lelblow			N_lelbtop			N_lwrext			N_lwrtop			N_lwrlow			N_rtopleg			N_ltopleg			N_rkneefr			N_rkneebk			N_rkneeis			N_lkneefr			N_lknssbk			N_lkneeis			N_rankfr			N_rankis			N_rankbk			N_lankfr			N_lankbk			N_lankis			D_lasi			D_rasi			D_lpsi			D_fneck			D_bneck			D_fhead			D_rhead			D_lhead			D_rshld			D_relbtop			D_relbext			D_relblow			D_rwrext			D_rwrtop			D_rwrlow			D_lshld			D_lelbext			D_lelblow			D_lelbtop			D_lwrext			D_lwrtop			D_lwrlow			D_rtopleg			D_ltopleg			D_rkneefr			D_rkneebk			D_rkneeis			D_lkneefr			D_lknssbk			D_lkneeis			D_rankfr			D_rankis			D_rankbk			D_lankfr			D_lankbk			D_lankis			D_rpsi			N_lelbext		
		X1	Y1	Z1	X2	Y2	Z2	X3	Y3	Z3	X4	Y4	Z4	X5	Y5	Z5	X6	Y6	Z6	X7	Y7	Z7	X8	Y8	Z8	X9	Y9	Z9	X10	Y10	Z10	X11	Y11	Z11	X12	Y12	Z12	X13	Y13	Z13	X14	Y14	Z14	X15	Y15	Z15	X16	Y16	Z16	X17	Y17	Z17	X18	Y18	Z18	X19	Y19	Z19	X20	Y20	Z20	X21	Y21	Z21	X22	Y22	Z22	X23	Y23	Z23	X24	Y24	Z24	X25	Y25	Z25	X26	Y26	Z26	X27	Y27	Z27	X28	Y28	Z28	X29	Y29	Z29	X30	Y30	Z30	X31	Y31	Z31	X32	Y32	Z32	X33	Y33	Z33	X34	Y34	Z34	X35	Y35	Z35	X36	Y36	Z36	X37	Y37	Z37	X38	Y38	Z38	X39	Y39	Z39	X40	Y40	Z40	X41	Y41	Z41	X42	Y42	Z42	X43	Y43	Z43	X44	Y44	Z44	X45	Y45	Z45	X46	Y46	Z46	X47	Y47	Z47	X48	Y48	Z48	X49	Y49	Z49	X50	Y50	Z50	X51	Y51	Z51	X52	Y52	Z52	X53	Y53	Z53	X54	Y54	Z54	X55	Y55	Z55	X56	Y56	Z56	X57	Y57	Z57	X58	Y58	Z58	X59	Y59	Z59	X60	Y60	Z60	X61	Y61	Z61	X62	Y62	Z62	X63	Y63	Z63	X64	Y64	Z64	X65	Y65	Z65	X66	Y66	Z66	X67	Y67	Z67	X68	Y68	Z68	X69	Y69	Z69	X70	Y70	Z70	X71	Y71	Z71	X72	Y72	Z72	X73	Y73	Z73	X74	Y74	Z74
																																																																																																																																																																																																																															
26	33.917	-538.87066	1240.22446	-93.06849	-506.79443	1289.54758	-317.30988	-251.05682	1258.82751	-379.64882	-266.25332	1210.90225	-20.31154	-393.15205	1613.51486	-189.27998	-230.65882	1667.29218	-167.3773	-442.51923	1791.0408	-195.78327	-246.48556	1770.68222	-241.46839	-303.86429	1779.32571	-97.36989	-223.28754	1655.09094	-275.78451	-319.84299	1817.86774	-446.31565	-400.45135	1792.58698	-408.67535	-313.38425	1840.2005	-355.1458	-436.91196	2135.64209	-501.25683	-427.04357	2148.90182	-456.07594	-464.39064	2136.28006	-426.96991	-303.99399	1522.20367	78.5272	-351.56731	1196.46851	76.80282	-264.65565	1194.84207	83.39958	-285.94223	880.34882	85.62675	-328.15918	871.56097	106.40269	-356.1042	881.57219	61.76383	-395.53078	1104.72702	-463.0962	-375.70915	1012.91885	27.78859	-428.12962	561.56666	-272.56155	-321.13075	578.70979	-338.81458	-370.53223	565.77625	-176.99064	-384.41383	540.26257	-112.27196	-259.55524	557.68066	-49.80247	-256.6576	548.16345	-199.38835	-294.52311	139.5561	-275.09604	-298.44019	154.98037	-195.67074	-216.44262	142.01529	-218.30469	-333.89065	193.23481	-123.29902	-262.2678	187.07806	-79.9293	-298.2678	166.07806	-163.9293	-458.98445	1037.81578	1742.81464	-423.13652	1055.82077	1457.73834	-262.90894	1132.5145	1746.83502	-418.64285	1564.21249	1600.21576	-280.02573	1594.70795	1606.42502	-461.83102	1773.04123	1596.98578	-296.20768	1734.68414	1525.05356	-308.53428	1733.39539	1679.57733	-338.49739	1559.02985	1437.64557	-408.58879	1411.77017	1165.61646	-451.93199	1443.57697	1221.29089	-361.37829	1476.06857	1202.59628	-513.30578	1679.07028	1204.9736	-459.35509	1698.34885	1190.99106	-442.55924	1681.14471	1239.42383	-331.34453	1550.76126	1803.90442	-429.54018	1459.8555	2008.18695	-340.80898	1475.19241	2031.08383	-391.2764	1420.9343	2068.31818	-476.20613	1690.10941	2031.63574	-432.54333	1698.23257	2028.51517	-421.20838	1682.49252	1981.19202	-330.29366	1004.58328	1410.72067	-319.19168	1009.96178	1811.0437	-372.81826	455.47932	1451.09955	-272.76531	490.85297	1423.93524	-281.14344	457.9623	1544.54468	-356.62804	448.65334	1771.70731	-244.02653	486.20472	1788.66058	-315.2623	444.44263	1680.64468	-323.47488	130.59824	1418.01056	-294.81403	126.51251	1482.70416	-243.23231	127.82014	1418.40057	-323.09181	135.22244	1792.87018	-250.37205	124.95678	1807.12296	-293.57716	124.42369	1733.61786	-235.19171	1146.64612	1530.21744	-333.63071	1167.95822	1.18938
27	33.933	-538.96641	1240.05745	-92.6833	-506.87038	1289.00558	-317.08271	-250.97555	1258.34908	-379.49352	-266.47516	1210.84663	-20.13598	-393.1633	1613.54172	-189.28324	-230.67013	1667.31888	-167.38058	-442.52804	1791.15845	-194.99208	-245.99632	1770.78461	-241.92976	-303.72824	1779.12918	-96.96124	-223.60262	1654.81018	-275.82829	-320.7777	1817.04132	-446.90643	-401.12827	1791.75552	-408.82393	-313.69741	1839.5166	-355.87601	-439.00021	2135.30167	-500.1593	-428.38112	2148.255	-454.88049	-465.3767	2135.75089	-425.23796	-303.76541	1522.31461	78.58844	-351.49509	1196.63628	77.00724	-264.57937	1194.90433	83.52944	-285.72935	880.45876	86.45947	-328.24512	871.72203	107.28291	-355.79151	881.53481	62.50737	-395.95814	1103.88176	-462.94281	-375.62626	1012.94128	27.88621	-428.05801	561.52458	-272.40955	-321.06178	578.65345	-338.71044	-370.38452	565.75699	-176.91074	-384.31339	540.28915	-112.16719	-259.37469	557.66632	-49.76373	-256.57715	548.13869	-199.36317	-294.53194	139.50542	-275.0235	-298.46979	154.98208	-195.57236	-216.43597	141.97922	-218.23265	-333.86986	193.24169	-123.20323	-262.23373	187.06085	-79.94623	-298.23373	166.06085	-163.94623	-459.21001	1037.91641	1742.84256	-423.33401	1055.90004	1457.68845	-263.04581	1132.53555	1746.84616	-418.38261	1564.29138	1600.42862	-279.59003	1595.04578	1606.73187	-461.88251	1773.00156	1597.20261	-296.19665	1734.55887	1524.16901	-308.43115	1733.54462	1679.77066	-338.20553	1559.40781	1437.73849	-405.69168	1408.40378	1166.27945	-450.15335	1439.25858	1221.73416	-360.66132	1474.42673	1202.99316	-518.42354	1672.65152	1203.44589	-465.11967	1693.46115	1189.83696	-448.40992	1676.89728	1238.71902	-330.46204	1550.59021	1804.17801	-428.3099	1455.92377	2007.75055	-340.12142	1473.46115	2031.48529	-389.02565	1417.61597	2068.48862	-481.69579	1684.19189	2031.38657	-438.50574	1693.73978	2028.47351	-426.4613	1678.41431	1981.0495	-330.48534	1004.5784	1410.70938	-319.20324	1010.0325	1810.99304	-372.93873	455.50606	1451.0791	-272.87672	490.88161	1423.90503	-281.2649	457.99568	1544.52118	-356.83064	448.65177	1771.70837	-244.14341	486.21811	1788.54813	-315.45132	444.47273	1680.6926	-323.52577	130.58668	1417.99927	-294.89237	126.52384	1482.69913	-243.25037	127.86542	1418.37952	-323.16257	135.20662	1792.79999	-250.40512	124.99414	1807.15393	-293.64967	124.42361	1733.58078	-235.29964	1146.02058	1529.83566	-333.45428	1168.0806	1.29188
28	33.95	-539.06757	1239.99931	-92.38046	-507.02644	1288.6438	-316.89951	-250.97792	1257.99232	-379.40449	-266.1659	1211.08681	-20.024	-393.13686	1613.5141	-189.23134	-230.64369	1667.29126	-167.32868	-442.51396	1791.22955	-194.19502	-246.29414	1771.01257	-241.43879	-303.56936	1778.97842	-96.51516	-223.89418	1654.6582	-276.03783	-321.60362	1816.44302	-447.50427	-401.68003	1791.10947	-409.17953	-314.53157	1838.98834	-356.70334	-440.50621	2135.14053	-499.03118	-429.6352	2147.92358	-453.87924	-466.38409	2135.10468	-424.05415	-303.58753	1522.46582	78.70064	-351.48201	1196.81122	77.1856	-264.56318	1195.0927	83.81603	-285.61625	880.61287	87.57699	-328.08434	871.96663	108.23305	-355.64049	881.75339	63.32716	-396.1108	1103.30482	-462.80895	-375.48512	1013.06526	28.02613	-428.04783	561.4856	-272.20993	-321.07441	578.60374	-338.5693	-370.32875	565.75863	-176.78955	-384.17076	540.32433	-112.00942	-259.22983	557.70332	-49.70639	-256.51957	548.11432	-199.30599	-294.58841	139.50512	-275.00078	-298.59028	154.94147	-195.49604	-216.43091	141.95937	-218.20242	-333.81519	193.24726	-123.14507	-262.1707	187.09452	-79.90248	-298.1707	166.09452	-163.90248	-459.45908	1038.0191	1742.82455	-423.61305	1056.04233	1457.66876	-263.16395	1132.47612	1746.73294	-417.87514	1564.39056	1600.80719	-278.73421	1595.43243	1606.95953	-461.72451	1772.83279	1597.55447	-296.16873	1734.92752	1525.25299	-308.39993	1733.81134	1679.90082	-337.44183	1559.68781	1437.44644	-401.99875	1403.75198	1167.39433	-447.5975	1433.53989	1222.29401	-359.44069	1471.85684	1203.33878	-525.06836	1663.84598	1201.15768	-472.31766	1686.48865	1188.14476	-455.81619	1670.93597	1237.35924	-329.33044	1550.19669	1804.44824	-426.95942	1450.31113	2007.04727	-339.42795	1470.92331	2031.92795	-386.86062	1413.08716	2067.77542	-488.88046	1676.2207	2031.31668	-445.9819	1687.36023	2028.41858	-433.12496	1672.85782	1981.02097	-330.69759	1004.59373	1410.65536	-319.34954	1010.08354	1811.00052	-373.0751	455.48313	1451.01776	-273.06652	490.91702	1423.87604	-281.44367	458.07381	1544.51218	-357.02812	448.67783	1771.70715	-244.35419	486.21132	1788.47595	-315.68193	444.49306	1680.62851	-323.56133	130.59041	1417.97089	-294.9152	126.52594	1482.69455	-243.30185	127.88915	1418.41599	-323.19546	135.20965	1792.7977	-250.46841	125.01617	1807.10495	-293.69707	124.43661	1733.56903	-235.48733	1146.03218	1530.0264	-333.33748	1168.26988	1.45971
29	33.967	-539.02729	1240.00931	-92.14891	-507.20852	1288.44955	-316.65157	-251.04248	1257.75856	-379.39957	-266.19776	1211.06911	-19.95979	-393.13774	1613.461	-189.21284	-230.64451	1667.23846	-167.31016	-442.60941	1791.28906	-193.51908	-246.6695	1771.31195	-240.88617	-303.96667	1778.77716	-95.62105	-224.0682	1654.67728	-276.37684	-322.35275	1816.0527	-448.09685	-402.31758	1790.62164	-409.67045	-314.88445	1838.68057	-357.31415	-441.8367	2135.10818	-498.153	-430.9391	2147.81769	-452.70355	-467.65133	2134.53644	-423.04321	-303.50149	1522.64893	78.78694	-351.40041	1196.99562	77.31805	-264.51696	1195.39078	84.19972	-285.19741	880.99838	88.59845	-327.63947	872.332	109.15366	-355.54508	882.06963	64.33087	-396.08555	1103.08189	-462.61833	-375.02808	1013.10097	28.15695	-428.13576	561.45782	-271.9669	-321.18355	578.60161	-338.4304	-370.24483	565.73601	-176.65855	-384.05304	540.36263	-111.75323	-259.07852	557.68353	-49.64549	-256.50623	548.08582	-199.22863	-294.67899	139.53833	-275.0465	-298.54076	154.91168	-195.46547	-216.4888	141.93064	-218.16149	-333.79776	193.25916	-123.05857	-262.18189	187.09684	-79.86925	-298.18189	166.09684	-163.86925	-459.63749	1038.15491	1742.87704	-423.99952	1056.12411	1457.57782	-263.2225	1132.42043	1746.63437	-417.03705	1564.30695	1601.3768	-278.2048	1595.578	1607.38007	-461.60374	1772.59308	1597.92023	-296.05762	1735.04547	1525.00732	-308.26649	1733.96881	1680.22614	-337.25864	1559.58801	1437.56424	-397.44591	1397.90558	1168.67203	-444.40533	1426.13937	1223.22678	-358.29887	1468.34808	1203.7252	-532.74548	1652.08908	1198.24356	-481.07498	1677.22855	1185.79491	-464.72698	1662.78641	1235.48241	-328.23898	1549.89655	1805.00153	-425.51426	1443.12271	2005.95337	-339.14398	1467.54791	2033.25943	-384.25392	1407.18597	2067.21954	-497.14195	1665.77148	2031.49094	-454.77734	1678.8739	2028.20175	-442.20612	1665.29373	1980.19623	-330.98904	1004.61327	1410.578	-319.49366	1010.12032	1810.95871	-373.34904	455.49435	1450.95612	-273.27372	490.94154	1423.77762	-281.60427	458.17051	1544.54651	-357.239	448.67088	1771.79962	-244.56684	486.16093	1788.32687	-315.9824	444.51836	1680.65048	-323.60889	130.61327	1417.93976	-294.97818	126.57804	1482.6712	-243.35161	127.93962	1418.39767	-323.14842	135.20651	1792.8418	-250.51571	125.04331	1807.07123	-293.80392	124.45127	1733.54309	-235.44537	1146.17126	1530.05524	-333.17139	1168.51845	1.65313
